<?xml version="1.0" encoding="UTF-8"?>
<svg xmlns="http://www.w3.org/2000/svg" xmlns:xlink="http://www.w3.org/1999/xlink" width="32px" height="32px" viewBox="0 0 32 32" version="1.1">
<g id="surface1">
<path style=" stroke:none;fill-rule:nonzero;fill:rgb(0%,0%,0%);fill-opacity:1;" d="M 10.667969 0 C 9.929688 0 9.332031 0.597656 9.332031 1.332031 L 9.332031 30.667969 C 9.332031 31.402344 9.929688 32 10.667969 32 C 11.402344 32 12 31.402344 12 30.667969 L 12 1.332031 C 12 0.597656 11.402344 0 10.667969 0 Z M 10.667969 0 "/>
<path style=" stroke:none;fill-rule:nonzero;fill:rgb(0%,0%,0%);fill-opacity:1;" d="M 21.332031 0 C 20.597656 0 20 0.597656 20 1.332031 L 20 30.667969 C 20 31.402344 20.597656 32 21.332031 32 C 22.070312 32 22.667969 31.402344 22.667969 30.667969 L 22.667969 1.332031 C 22.667969 0.597656 22.070312 0 21.332031 0 Z M 21.332031 0 "/>
</g>
</svg>
